<svg xmlns="http://www.w3.org/2000/svg" width="1372.014mm" height="200mm" viewBox="0 0 1372.014 200"><defs><clipPath id="a" clipPathUnits="userSpaceOnUse"><path d="M0 47.98h329.15V0H0Z"/></clipPath></defs><path d="m0 0-9.466-4.753L-18.921 0l9.455-17.987Z" style="fill:#fdbb31;fill-opacity:1;fill-rule:nonzero;stroke:none" transform="matrix(4.16836 0 0 -4.16836 120.413 0)"/><g clip-path="url(#a)" transform="matrix(4.16836 0 0 -4.16836 -.002 200)"><path d="m0 0-.145.125 6.752 2.838v9.489l-11.73-4.998s-6.354-12.036-6.496-12.311a9.846 9.846 0 0 0 8.712-9.793c0-5.442-4.425-9.875-9.864-9.875-5.444 0-9.867 4.433-9.867 9.875 0 5.025 3.734 9.195 8.708 9.793l-6.489 12.311-11.714 4.998V2.963L-25.39.125-25.534 0a19.462 19.462 0 0 1-6.659-14.65c0-10.714 8.713-19.43 19.422-19.43 10.71 0 19.425 8.716 19.425 19.43A19.482 19.482 0 0 1 0 0" style="fill:#fdbb31;fill-opacity:1;fill-rule:nonzero;stroke:none" transform="translate(32.193 34.08)"/><path d="M0 0c3.994-4.54 10.33-6.763 10.33-6.763l1.883 3.172C5.262-.556 3.18 5.192 3.18 7.243v2.67c-.034.384-.184.72-.451 1.007a1.364 1.364 0 0 1-1.032.429h-4.879V7.243c0-2.051-2.08-7.799-9.032-10.834l1.882-3.172S-3.992-4.54 0 0" style="fill:#0076c0;fill-opacity:1;fill-rule:nonzero;stroke:none" transform="translate(251.305 30.764)"/><path d="M272.467 32.489h3.006V22.75h-3.006zm1.26-14.158c1.212-1.213 2.017-2.643 2.064-4.359.209-7.606-9.038-7.508-11.484-7.508-2.449 0-11.63.664-11.553 7.34.078 6.759 8.191 6.726 12.994 6.726h16.086v20.524a1.627 1.627 0 0 1-.455 1.003c-.27.288-.613.432-1.027.432h-4.879v-7.223h-3.006v5.788a1.627 1.627 0 0 1-.455 1.003 1.351 1.351 0 0 1-1.028.432h-4.879V22.75h-4.818c-7.867 0-14.784-1.717-14.908-8.987-.129-7.356 9.152-10.018 18.125-10.018 8.975 0 17.84 2.33 17.84 10.445 0 1.52-.483 2.855-1.227 4.141zM313.941 35.296h8.34v-3.444h-8.34zm-6.369-7.42h-11.006c-.352 0-.625.086-.816.264-.191.172-.288.435-.288.789v10.456h12.11zm20.354-9.545h-7.39c1.21-1.213 2.015-2.643 2.064-4.359.208-7.606-9.038-7.508-11.487-7.508-2.447 0-11.626.664-11.549 7.34.081 6.759 8.19 6.726 12.991 6.726h16.088v20.524a1.634 1.634 0 0 1-.456 1.003 1.355 1.355 0 0 1-1.027.432h-4.879v-4.418h-8.34v2.559c0 .383-.15.717-.436 1.007a1.636 1.636 0 0 1-1.051.476H289.1V28.066c.033-.829.318-1.515.862-2.055.543-.544 1.228-.83 2.059-.864h21.92v3.931h8.34V22.75h-14.185c-7.864 0-14.783-1.717-14.907-8.987-.127-7.356 9.155-10.018 18.124-10.018 8.973 0 17.837 2.33 17.837 10.445 0 1.52-.482 2.855-1.224 4.141" style="fill:#0076c0;fill-opacity:1;fill-rule:nonzero;stroke:none"/><path d="M0 0h-16.804v5.198H-.811c.28 0 .49.217.529.535.023.161.125 1.009-.01 1.705-.053.288-.255.461-.533.461h-30.304c-.85 0-1.552.675-1.552 1.488v7.4c0 .828-.697 1.488-1.551 1.488h-4.758V7.993c0-1.533 1.315-2.795 2.942-2.795h12.928V0h-18.545l1.793-2.715h5.528c-2.432-1.659-3.884-3.977-3.884-6.964 0-7.12 8.203-10.363 18.307-10.363 10.109 0 18.312 3.243 18.312 10.363 0 1.896-.576 3.516-1.622 4.862h-7.625c1.853-1.179 2.968-2.898 2.968-5.182 0-4.999-5.383-7.28-12.033-7.28-6.65 0-12.03 2.281-12.03 7.28 0 4.998 5.305 7.271 12.03 7.271l-.088.013H.007c.267 0 .48.219.517.55.02.158.13.994-.005 1.693C.458-.181.268 0 0 0" style="fill:#0076c0;fill-opacity:1;fill-rule:nonzero;stroke:none" transform="translate(188.571 23.432)"/><path d="M0 0h-7.512a6.882 6.882 0 0 1 .038 3.59H0Zm0-21.271h-22.857a.855.855 0 0 0-.872.847v4.75H0ZM4.908 13.53H0V6.361h-15.305c.331-.367.621-.772.862-1.22a6.7 6.7 0 0 0 .871-3.28c0-3.682-2.657-6.658-6.564-6.658-3.919 0-6.561 2.976-6.561 6.658 0 3.639 2.81 6.612 6.478 6.652h14.127c.272 0 .487.223.526.548.021.162.134 1.036-.006 1.749-.063.295-.259.468-.533.468h-10.787v1.489c0 .831-.709 1.51-1.596 1.51h-4.893v-2.999h-12.281c.254-.358 1.76-2.661 1.832-2.765h4.633c-2.373-1.698-3.834-4.052-3.834-6.652 0-5.172 5.191-9.341 12.895-9.341 5.182 0 8.983 1.884 11.202 4.71H0v-10.132h-23.729v2.824c0 .853-.71 1.523-1.596 1.523H-30.2v-12.621c0-1.572 1.362-2.865 3.02-2.865H6.509v36.048c0 .849-.726 1.523-1.601 1.523" style="fill:#0076c0;fill-opacity:1;fill-rule:nonzero;stroke:none" transform="translate(227.762 28.872)"/><path d="M0 0h-5.671v-14.635h-23.178V0h-5.67c-1.336 0-2.435-1.288-2.435-2.884v-30.943c0-1.588 1.091-2.89 2.435-2.89h5.67v15.72h23.178v-15.72H0c1.348 0 2.438 1.302 2.438 2.89v30.943C2.438-1.288 1.356 0 0 0" style="fill:#0076c0;fill-opacity:1;fill-rule:nonzero;stroke:none" transform="translate(138.042 41.46)"/><path d="M0 0h-5.674v-28.115L-22.719-5.656C-25.552-2.378-27.5 0-32.027 0h-5.777v-33.827c0-1.588 1.085-2.89 2.447-2.89h5.664v28.248l17.153-22.305c2.901-3.359 5.477-5.943 9.678-5.943h5.299v33.833C2.437-1.288 1.348 0 0 0" style="fill:#0076c0;fill-opacity:1;fill-rule:nonzero;stroke:none" transform="translate(91.633 41.46)"/></g></svg>